nColumns=19
nRows=89
DataType=double
version=3
OpenSimVersion=4.1
endheader
time	ground_force_calcn_r_vx	ground_force_calcn_r_vy	ground_force_calcn_r_vz	ground_force_calcn_r_px	ground_force_calcn_r_py	ground_force_calcn_r_pz	ground_force_calcn_r_mx	ground_force_calcn_r_my	ground_force_calcn_r_mz	ground_force_calcn_l_vx	ground_force_calcn_l_vy	ground_force_calcn_l_vz	ground_force_calcn_l_px	ground_force_calcn_l_py	ground_force_calcn_l_pz	ground_force_calcn_l_mx	ground_force_calcn_l_my	ground_force_calcn_l_mz
0	-43.0667	283.265	15.6825	0.117631	0	-0.199563	-0.0116427	0.0765782	0.00423963	0	0	0	0	0	0	0	0	0
0.01	-54.2392	312.056	12.7385	0.122789	0	-0.198901	-0.00856416	0.0492723	0.00201135	0	0	0	0	0	0	0	0	0
0.02	-66.1549	344.616	9.22454	0.128748	0	-0.198116	-0.00793314	0.0413255	0.00110618	0	0	0	0	0	0	0	0	0
0.03	-78.429	380.278	5.14509	0.134471	0	-0.197324	-0.0111863	0.054239	0.000733843	0	0	0	0	0	0	0	0	0
0.04	-90.6143	418.102	0.560312	0.13985	0	-0.196551	-0.0189547	0.0874588	0.000117206	0	0	0	0	0	0	0	0	0
0.05	-102.207	456.903	-4.39205	0.14481	0	-0.195825	-0.0315332	0.140965	-0.00135505	0	0	0	0	0	0	0	0	0
0.06	-112.695	495.364	-9.50805	0.149307	0	-0.195169	-0.0489583	0.215202	-0.0041306	0	0	0	0	0	0	0	0	0
0.07	-121.642	532.243	-14.564	0.153337	0	-0.194595	-0.0703563	0.307842	-0.00842364	0	0	0	0	0	0	0	0	0
0.08	-128.74	566.501	-19.3484	0.156922	0	-0.194108	-0.0939327	0.413337	-0.0141172	0	0	0	0	0	0	0	0	0
0.09	-133.796	597.292	-23.6716	0.160101	0	-0.193706	-0.117573	0.524867	-0.0208012	0	0	0	0	0	0	0	0	0
0.1	-136.727	623.92	-27.3816	0.16292	0	-0.193382	-0.13919	0.635157	-0.0278747	0	0	0	0	0	0	0	0	0
0.11	-137.546	645.817	-30.3816	0.165433	0	-0.193123	-0.156837	0.736395	-0.0346427	0	0	0	0	0	0	0	0	0
0.12	-136.346	662.541	-32.6352	0.167696	0	-0.192911	-0.168967	0.821051	-0.040443	0	0	0	0	0	0	0	0	0
0.13	-133.304	673.793	-34.1613	0.169771	0	-0.192726	-0.174666	0.882859	-0.044761	0	0	0	0	0	0	0	0	0
0.14	-128.658	679.444	-35.0194	0.171723	0	-0.192544	-0.173762	0.917643	-0.0472966	0	0	0	0	0	0	0	0	0
0.15	-122.691	679.572	-35.2954	0.173615	0	-0.192343	-0.166733	0.923521	-0.0479656	0	0	0	0	0	0	0	0	0
0.16	-115.708	674.481	-35.0873	0.175508	0	-0.192098	-0.154521	0.900728	-0.046857	0	0	0	0	0	0	0	0	0
0.17	-108.011	664.682	-34.4901	0.177455	0	-0.191794	-0.138304	0.851101	-0.0441633	0	0	0	0	0	0	0	0	0
0.18	-99.8787	650.863	-33.5898	0.1795	0	-0.191414	-0.119287	0.77734	-0.0401171	0	0	0	0	0	0	0	0	0
0.19	-91.5528	633.836	-32.4625	0.181677	0	-0.190947	-0.0985795	0.682484	-0.034954	0	0	0	0	0	0	0	0	0
0.2	-83.2368	614.484	-31.1762	0.184008	0	-0.190387	-0.0771304	0.569404	-0.028889	0	0	0	0	0	0	0	0	0
0.21	-75.1013	593.704	-29.7925	0.186514	0	-0.189728	-0.0557263	0.440538	-0.0221065	0	0	0	0	0	0	0	0	0
0.22	-67.2897	572.374	-28.3685	0.189209	0	-0.18897	-0.0350204	0.297888	-0.0147642	0	0	0	0	0	0	0	0	0
0.23	-59.9192	551.315	-26.958	0.192104	0	-0.188115	-0.015551	0.143085	-0.00699651	0	0	0	0	0	0	0	0	0
0.24	-53.08	531.269	-25.6114	0.195205	0	-0.187172	0.0022424	-0.0224438	0.00108197	0	0	0	0	0	0	0	0	0
0.25	-46.8343	512.88	-24.3745	0.198514	0	-0.186154	0.0180148	-0.197279	0.00937565	0	0	0	0	0	0	0	0	0
0.26	-41.2133	496.681	-23.2861	0.202018	0	-0.185079	0.0315279	-0.379958	0.0178137	0	0	0	0	0	0	0	0	0
0.27	-36.2154	483.091	-22.3763	0.205696	0	-0.183975	0.0426697	-0.569188	0.0263643	0	0	0	0	0	0	0	0	0
0.28	-31.805	472.415	-21.6642	0.209512	0	-0.182871	0.0514399	-0.764062	0.0350386	0	0	0	0	0	0	0	0	0
0.29	-27.9156	464.852	-21.1584	0.213413	0	-0.181802	0.0578975	-0.96411	0.0438829	0	0	0	0	0	0	0	0	0
0.3	-24.4571	460.499	-20.858	0.217344	0	-0.180799	0.0621008	-1.16929	0.052962	0	0	0	0	0	0	0	0	0
0.31	-21.3244	459.365	-20.7545	0.221249	0	-0.179889	0.0640525	-1.37981	0.0623408	0	0	0	0	0	0	0	0	0
0.32	-18.4058	461.373	-20.8364	0.225081	0	-0.179088	0.0636663	-1.59591	0.072074	0	0	0	0	0	0	0	0	0
0.33	-15.5901	466.374	-21.0938	0.228805	0	-0.178401	0.0607578	-1.81756	0.0822069	0	0	0	0	0	0	0	0	0
0.34	-12.7717	474.157	-21.5206	0.232405	0	-0.177826	0.0550621	-2.04421	0.0927807	0	0	0	0	0	0	0	0	0
0.35	-9.85368	484.459	-22.114	0.235881	0	-0.177347	0.0462609	-2.27443	0.103821	0	0	0	0	0	0	0	0	0
0.36	-6.74839	496.982	-22.8713	0.239241	0	-0.176951	0.0340222	-2.50555	0.115307	0	0	0	0	0	0	0	0	0
0.37	-3.3779	511.396	-23.786	0.242506	0	-0.17662	0.0180559	-2.73357	0.127143	0	0	0	0	0	0	0	0	0
0.38	0.325105	527.348	-24.8443	0.245697	0	-0.176335	-0.00182065	-2.95326	0.139133	0	0	0	0	0	0	0	0	0
0.39	4.41511	544.464	-26.0235	0.248833	0	-0.176081	-0.025612	-3.15843	0.150962	0	0	0	0	0	0	0	0	0
0.4	8.93191	562.347	-27.2907	0.251932	0	-0.175847	-0.0530863	-3.34228	0.162201	0	0	0	0	0	0	0	0	0
0.41	13.8989	580.574	-28.6045	0.255008	0	-0.175622	-0.0837391	-3.49788	0.172338	0	0	0	0	0	0	0	0	0
0.42	19.3216	598.691	-29.9157	0.258066	0	-0.175397	-0.116794	-3.61893	0.180833	0	0	0	0	0	0	0	0	0
0.43	25.1872	616.219	-31.167	0.261115	0	-0.175172	-0.151257	-3.70058	0.187167	0	0	0	0	0	0	0	0	0
0.44	31.4662	632.66	-32.295	0.264152	0	-0.174943	-0.186008	-3.73987	0.190907	0	0	0	0	0	0	0	0	0
0.45	38.1114	647.515	-33.2348	0.267175	0	-0.174715	-0.219895	-3.73602	0.191758	0	0	0	0	0	0	0	0	0
0.46	45.058	660.296	-33.9239	0.270178	0	-0.174492	-0.251818	-3.69022	0.189592	0	0	0	0	0	0	0	0	0
0.47	52.2266	670.536	-34.3053	0.273153	0	-0.174282	-0.280811	-3.60533	0.184452	0	0	0	0	0	0	0	0	0
0.48	59.5258	677.795	-34.332	0.276087	0	-0.174091	-0.30609	-3.48531	0.17654	0	0	0	0	0	0	0	0	0
0.49	66.8527	681.654	-33.971	0.278969	0	-0.173923	-0.327054	-3.33476	0.166192	0	0	0	0	0	0	0	0	0
0.5	74.0889	681.715	-33.2053	0.281788	0	-0.17378	-0.343254	-3.15839	0.153841	0	0	0	0	0	0	0	0	0
0.51	81.0951	677.606	-32.0354	0.284537	0	-0.173663	-0.354331	-2.96068	0.139973	1.44643	35.0661	-6.30267	0.743029	0	-0.254917	0.0155909	0.377972	-0.0679356
0.52	87.7066	668.992	-30.4798	0.28721	0	-0.173569	-0.359959	-2.74563	0.125093	-0.504352	53.7531	-7.27075	0.766397	0	-0.264195	-0.00421849	0.4496	-0.0608138
0.53	93.7324	655.594	-28.5727	0.289811	0	-0.173492	-0.359847	-2.51688	0.109693	-3.35796	76.1688	-8.22795	0.781186	0	-0.269301	-0.0220675	0.500558	-0.0540716
0.54	98.9591	637.209	-26.3624	0.292343	0	-0.173429	-0.353787	-2.27808	0.0942478	-7.28191	102.224	-9.09768	0.791889	0	-0.272439	-0.0386217	0.542173	-0.0482522
0.55	103.158	613.741	-23.9111	0.294818	0	-0.173372	-0.341692	-2.03291	0.0792011	-12.3801	131.659	-9.78608	0.8004	0	-0.274536	-0.0544269	0.578817	-0.0430228
0.56	106.097	585.222	-21.2904	0.297252	0	-0.173316	-0.323682	-1.7854	0.0649527	-18.6225	164.182	-10.1887	0.807619	0	-0.276053	-0.0694868	0.61262	-0.0380174
0.57	107.561	551.84	-18.5766	0.299662	0	-0.173252	-0.300174	-1.54004	0.0518424	-25.8801	199.479	-10.1961	0.813987	0	-0.277237	-0.0836046	0.644409	-0.0329381
0.58	107.366	513.966	-15.8475	0.30207	0	-0.173173	-0.271894	-1.30157	0.0401323	-33.9386	237.161	-9.71405	0.819717	0	-0.278227	-0.0964782	0.674185	-0.0276144
0.59	105.379	472.159	-13.1809	0.304501	0	-0.173069	-0.239823	-1.07454	0.0299971	-42.5004	276.705	-8.68152	0.824904	0	-0.279095	-0.107669	0.700992	-0.0219933
0.6	101.547	427.182	-10.6504	0.306988	0	-0.172932	-0.205172	-0.863104	0.0215187	-51.202	317.386	-7.0837	0.829586	0	-0.279879	-0.116537	0.722376	-0.0161226
0.61	95.9164	379.993	-8.31887	0.309569	0	-0.17275	-0.169348	-0.670908	0.0146876	-59.6473	358.303	-4.96368	0.833782	0	-0.280599	-0.122263	0.734436	-0.0101744
0.62	88.6475	331.724	-6.23513	0.31229	0	-0.172514	-0.133795	-0.50067	0.00941066	-67.4732	398.502	-2.4068	0.837528	0	-0.281267	-0.124221	0.73366	-0.00443102
0.63	80.0211	283.613	-4.4312	0.315213	0	-0.172211	-0.0997641	-0.353586	0.00552447	-74.3911	437.119	0.488323	0.840872	0	-0.281897	-0.122458	0.71956	0.000803848
0.64	70.4284	236.915	-2.9194	0.31842	0	-0.171822	-0.068239	-0.22955	0.00282864	-80.1884	473.448	3.61913	0.843867	0	-0.282501	-0.117642	0.694579	0.0053095
0.65	60.3331	192.791	-1.69417	0.322039	0	-0.171313	-0.039893	-0.127476	0.0011202	-84.7226	506.927	6.87458	0.846566	0	-0.283091	-0.110684	0.662266	0.00898117
0.66	50.2164	152.213	-0.735854	0.326271	0	-0.170624	-0.0150837	-0.0457207	0.000221031	-87.9144	537.095	10.1396	0.849022	0	-0.283671	-0.102547	0.62649	0.0118273
0.67	40.5134	115.894	-0.0150127	0.331482	0	-0.169645	0.0061345	0.0175485	-2.27321e-06	-89.7483	563.559	13.3106	0.851288	0	-0.28425	-0.0941822	0.5914	0.0139681
0.68	31.5665	84.2706	0.501736	0.338379	0	-0.16816	0.0240926	0.064318	0.000382941	-90.2667	585.983	16.2985	0.85342	0	-0.284834	-0.0863578	0.560607	0.0155927
0.69	23.6088	57.5118	0.848657	0.348522	0	-0.165677	0.0396096	0.0964901	0.00142383	-89.5671	604.095	19.024	0.855475	0	-0.285426	-0.0795496	0.536531	0.0168963
0.7	16.7674	35.5444	1.05916	0.366027	0	-0.160864	0.0542696	0.115043	0.00342809	-87.792	617.718	21.4172	0.857508	0	-0.28603	-0.0739783	0.520522	0.0180473
0.71	0	0	0	0	0	0	0	0	0	-85.1125	626.795	23.4191	0.85957	0	-0.286644	-0.0696477	0.512908	0.0191639
0.72	0	0	0	0	0	0	0	0	0	-81.7108	631.419	24.983	0.861707	0	-0.28727	-0.0664172	0.513238	0.020307
0.73	0	0	0	0	0	0	0	0	0	-77.7657	631.834	26.0789	0.863956	0	-0.287902	-0.0641217	0.520978	0.0215034
0.74	0	0	0	0	0	0	0	0	0	-73.4409	628.427	26.6966	0.866348	0	-0.28854	-0.0626285	0.535907	0.0227662
0.75	0	0	0	0	0	0	0	0	0	-68.8824	621.704	26.8479	0.868906	0	-0.289179	-0.0618696	0.55841	0.0241145
0.76	0	0	0	0	0	0	0	0	0	-64.2186	612.248	26.5679	0.871648	0	-0.289815	-0.0618348	0.589522	0.0255817
0.77	0	0	0	0	0	0	0	0	0	-59.5591	600.681	25.9149	0.874586	0	-0.29045	-0.0625418	0.630764	0.0272128
0.78	0	0	0	0	0	0	0	0	0	-54.9949	587.641	24.9661	0.877728	0	-0.291082	-0.0640011	0.683876	0.0290547
0.79	0	0	0	0	0	0	0	0	0	-50.5962	573.754	23.81	0.881079	0	-0.29171	-0.0661789	0.750459	0.031143
0.8	0	0	0	0	0	0	0	0	0	-46.4109	559.614	22.538	0.88463	0	-0.292339	-0.0689866	0.831828	0.0335012
0.81	0	0	0	0	0	0	0	0	0	-42.4623	545.772	21.235	0.888364	0	-0.292967	-0.0722647	0.928826	0.0361389
0.82	0	0	0	0	0	0	0	0	0	-38.7492	532.727	19.9732	0.892252	0	-0.293595	-0.0757749	1.04176	0.0390581
0.83	0	0	0	0	0	0	0	0	0	-35.246	520.92	18.8094	0.896252	0	-0.294221	-0.0791994	1.17053	0.0422655
0.84	0	0	0	0	0	0	0	0	0	-31.9056	510.731	17.7859	0.900311	0	-0.294842	-0.0821366	1.31481	0.0457873
0.85	0	0	0	0	0	0	0	0	0	-28.6635	502.477	16.9343	0.90437	0	-0.295452	-0.0840851	1.47403	0.0496772
0.86	0	0	0	0	0	0	0	0	0	-25.4441	496.399	16.2795	0.90837	0	-0.296048	-0.0844357	1.64729	0.0540232
0.87	0	0	0	0	0	0	0	0	0	-22.1678	492.671	15.8419	0.912257	0	-0.296623	-0.0824936	1.83338	0.0589526
0.88	0	0	0	0	0	0	0	0	0	-18.7574	491.385	15.6389	0.915993	0	-0.297177	-0.0775132	2.0306	0.0646261
